:SAMPLES-PER-SECOND 30
:FULLY-SPECIFIED
:DEGREES
32
root  43.13 38.2971 -5.95949 140.672 -82.166 -139.781
RightUpLeg  -19.5028 -14.0542 7.02337
RightLeg  29.9891 -1.52623 -1.20896
RightFoot  -11.8755 -0.0865059 -1.43918
RightToes  -1.74624e-010 0 -3.6325e-017
Spine  18.2277 -2.96225 11.1162
Spine1  10.5544 -1.62796 2.65091
HEad  -20.4365 6.98988 -4.2264
LeftShoulder1  8.20236 -12.2885 -45.2689
LeftArm  5.15824 -7.07747 -39.9804
LeftForeArm  43.888 -38.9349 -6.34305
LeftHand  -0.244104 0.0205437 5.32207
RightShoulder  5.46508 9.0402 37.5397
RightArm  -13.7022 -7.83709 33.299
RightForeArm  21.2736 6.68207 4.29894
RightHand  -1.77589 6.82633 -17.0764
LeftUpLeg  -12.2571 6.22843 7.15491
LeftLeg  64.4529 3.31289 8.22895
LeftFoot  3.6477 0.483904 -3.84302
LeftToes  8.00323e-011 -1.37366e-010 4.43692e-012
33
root  41.5284 38.563 -6.31634 146.635 -81.9278 -145.402
RightUpLeg  -16.085 -14.6996 6.15249
RightLeg  28.2904 -0.150351 -0.352982
RightFoot  -13.7721 -0.110379 -0.813482
RightToes  -1.74624e-010 0 -3.6325e-017
Spine  17.8395 -2.33291 11.2809
Spine1  10.367 -0.830279 1.83746
HEad  -20.4132 6.41145 -4.02016
LeftShoulder1  8.21419 -12.2501 -45.4508
LeftArm  2.77574 -4.35481 -37.3078
LeftForeArm  41.9554 -36.5865 -5.82393
LeftHand  -0.244104 0.0205437 5.32207
RightShoulder  5.18313 8.588 36.8567
RightArm  -15.5029 -2.9816 33.122
RightForeArm  18.7332 8.80162 4.26781
RightHand  -1.85004 7.09058 -17.4054
LeftUpLeg  -18.3402 5.69793 5.35342
LeftLeg  64.54 2.79004 7.04981
LeftFoot  1.87946 0.477321 -4.20352
LeftToes  8.00323e-011 -1.37366e-010 4.43692e-012
34
root  39.8737 38.8304 -6.68542 153.431 -81.8337 -152.031
RightUpLeg  -12.1625 -15.5315 4.73711
RightLeg  26.0473 1.28752 0.534848
RightFoot  -14.8927 -0.108589 -0.23863
RightToes  -1.74624e-010 0 -3.6325e-017
Spine  17.3904 -1.55769 11.2231
Spine1  10.018 0.140855 0.563605
HEad  -20.1583 5.29768 -3.56318
LeftShoulder1  8.21093 -12.2384 -45.4671
LeftArm  0.727843 -1.50221 -34.6272
LeftForeArm  39.8 -33.678 -5.21022
LeftHand  -0.244104 0.0205437 5.32207
RightShoulder  4.84914 8.09589 35.8269
RightArm  -16.4217 0.261484 33.4965
RightForeArm  13.3124 13.8207 4.38552
RightHand  -1.88203 7.21331 -17.5308
LeftUpLeg  -23.3085 5.41854 3.49623
LeftLeg  61.2604 3.40184 7.26377
LeftFoot  0.379992 0.356679 -3.49795
LeftToes  8.00323e-011 -1.37366e-010 4.43692e-012
35
root  38.2063 39.0502 -7.04195 160.229 -81.5388 -158.86
RightUpLeg  -8.09821 -15.2282 3.05406
RightLeg  23.8753 1.55247 1.15073
RightFoot  -15.6826 -0.114257 -0.203815
RightToes  -1.74624e-010 0 -3.6325e-017
Spine  17.0363 -0.701467 11.2167
Spine1  9.74555 1.27058 -0.979828
HEad  -20.0562 3.88939 -3.10715
LeftShoulder1  8.21481 -12.2157 -45.5574
LeftArm  -1.20178 1.34024 -31.8073
LeftForeArm  38.0136 -30.6699 -4.59524
LeftHand  -0.244104 0.0205437 5.32207
RightShoulder  4.64282 7.82978 35.0046
RightArm  -16.2468 2.53264 33.4182
RightForeArm  6.28662 20.9715 4.59749
RightHand  -1.8959 7.18173 -17.6973
LeftUpLeg  -26.6154 5.95599 1.80045
LeftLeg  54.4144 4.37698 7.04904
LeftFoot  -1.91678 0.265988 -3.08676
LeftToes  8.00323e-011 -1.37366e-010 4.43692e-012
36
root  36.5168 39.1648 -7.37308 165.754 -81.0402 -164.349
RightUpLeg  -4.2549 -14.4015 1.50493
RightLeg  21.9327 1.37423 1.70231
RightFoot  -16.6441 -0.127291 -0.326331
RightToes  -1.74624e-010 0 -3.6325e-017
Spine  16.6266 0.092824 11.2204
Spine1  9.50315 2.27799 -2.35336
HEad  -20.2166 2.81089 -2.87369
LeftShoulder1  8.17073 -12.1026 -45.6437
LeftArm  -3.07383 4.45015 -28.9169
LeftForeArm  35.8229 -27.8732 -4.08404
LeftHand  -0.244104 0.0205437 5.32207
RightShoulder  4.56632 7.77811 34.52
RightArm  -18.4303 4.61302 32.5232
RightForeArm  3.75065 28.9465 6.03176
RightHand  -1.94399 7.17966 -18.134
LeftUpLeg  -28.3583 7.12986 0.168104
LeftLeg  43.8828 4.80452 5.35062
LeftFoot  -3.72575 0.182485 -2.407
LeftToes  8.00323e-011 -1.37366e-010 4.43692e-012
37
root  34.7892 39.2492 -7.68454 171.341 -80.4279 -169.814
RightUpLeg  -0.276614 -13.5388 -0.214653
RightLeg  19.4567 1.58477 2.36035
RightFoot  -16.9236 -0.108541 0.132382
RightToes  -1.74624e-010 0 -3.6325e-017
Spine  16.1937 0.798009 10.7685
Spine1  9.36151 3.12346 -3.58028
HEad  -20.5755 2.27212 -2.76688
LeftShoulder1  8.05524 -11.9447 -45.4509
LeftArm  -4.61612 7.97348 -26.2704
LeftForeArm  32.2738 -25.2499 -3.70257
LeftHand  -0.244104 0.0205437 5.32207
RightShoulder  4.5523 7.85196 34.1382
RightArm  -21.0309 6.54212 31.4038
RightForeArm  4.31345 37.4046 8.32691
RightHand  -1.93761 7.06687 -18.232
LeftUpLeg  -28.6313 9.27017 -2.00814
LeftLeg  30.2399 4.47421 3.39813
LeftFoot  -4.16174 0.104754 -1.27885
LeftToes  8.00323e-011 -1.37366e-010 4.43692e-012
38
root  32.99 39.2989 -7.96422 175.967 -79.417 -174.485
RightUpLeg  3.69566 -12.7534 -2.03094
RightLeg  17.3545 2.46697 2.89798
RightFoot  -16.3482 -0.0727329 0.866626
RightToes  -1.74624e-010 0 -3.6325e-017
Spine  15.7803 1.43125 10.2881
Spine1  9.56783 4.04099 -4.78615
HEad  -20.9019 2.13649 -2.64263
LeftShoulder1  7.86942 -11.7943 -44.8134
LeftArm  -5.96307 11.6955 -24.1197
LeftForeArm  28.1349 -22.5838 -3.50354
LeftHand  -0.244104 0.0205437 5.32207
RightShoulder  4.5655 8.01453 33.6914
RightArm  -23.1084 8.07121 30.46
RightForeArm  5.36466 46.0891 11.291
RightHand  -1.77553 6.42057 -17.6326
LeftUpLeg  -27.1562 10.8678 -3.38001
LeftLeg  15.7073 6.6513 1.13671
LeftFoot  -4.58777 0.0839253 -0.956186
LeftToes  8.00323e-011 -1.37366e-010 4.43692e-012
39
root  31.0495 39.239 -8.19953 178.437 -78.0074 -177.221
RightUpLeg  7.19424 -12.5884 -3.85799
RightLeg  17.0457 4.49186 3.13478
RightFoot  -16.0523 -0.0282581 1.90593
RightToes  -1.74624e-010 0 -3.6325e-017
Spine  15.1148 2.02125 10.1261
Spine1  9.99109 5.00149 -5.87787
HEad  -20.8576 2.37275 -2.46784
LeftShoulder1  7.57797 -11.5371 -43.845
LeftArm  -7.6776 15.2781 -22.3605
LeftForeArm  25.811 -19.8687 -3.68323
LeftHand  -0.244104 0.0205437 5.32207
RightShoulder  4.5578 8.12576 33.248
RightArm  -24.622 9.32172 29.6765
RightForeArm  6.63521 54.4497 15.3318
RightHand  -1.53497 5.35517 -16.772
LeftUpLeg  -24.346 5.09322 -0.280123
LeftLeg  4.77141 17.5524 -3.27212
LeftFoot  -5.55396 0.0658752 -0.618513
LeftToes  8.00323e-011 -1.37366e-010 4.43692e-012
40
root  29.0128 39.0889 -8.39544 -178.616 -76.9208 179.552
RightUpLeg  9.85761 -12.7822 -6.06876
RightLeg  18.5112 7.17624 3.16613
RightFoot  -15.9778 0.0971553 5.00601
RightToes  -1.74624e-010 0 -3.6325e-017
Spine  14.3521 2.45138 9.37213
Spine1  10.2266 5.63654 -6.67317
HEad  -20.4825 2.91419 -2.16041
LeftShoulder1  7.21349 -11.1097 -42.9054
LeftArm  -8.87544 18.3404 -20.7396
LeftForeArm  25.6858 -17.3169 -3.93355
LeftHand  -0.244104 0.0205437 5.32207
RightShoulder  4.48409 8.02851 32.9406
RightArm  -25.7233 10.3056 28.8564
RightForeArm  10.4308 62.2017 21.026
RightHand  -1.23659 4.03174 -15.3954
LeftUpLeg  -23.4217 2.19527 -0.226213
LeftLeg  2.32185 21.4707 -4.97105
LeftFoot  -5.47021 0.00436735 0.527822
LeftToes  8.00323e-011 -1.37366e-010 4.43692e-012
41
root  26.9385 38.8645 -8.55153 -175.214 -76.4135 175.72
RightUpLeg  10.6852 -11.2206 -8.11297
RightLeg  23.2088 7.90963 3.39805
RightFoot  -13.951 0.116072 10.2167
RightToes  -1.74624e-010 0 -3.6325e-017
Spine  14.0609 2.72404 8.02282
Spine1  9.86512 5.7911 -6.91718
HEad  -20.338 3.41017 -1.66791
LeftShoulder1  6.96754 -10.7901 -42.3336
LeftArm  -9.38386 20.4349 -19.2343
LeftForeArm  26.6593 -14.7868 -4.17918
LeftHand  -0.244104 0.0205437 5.32207
RightShoulder  4.39544 7.84749 32.7802
RightArm  -26.9282 10.5091 27.7026
RightForeArm  19.234 69.4707 30.2727
RightHand  -0.858265 2.31141 -13.0748
LeftUpLeg  -23.9968 4.3165 -3.61274
LeftLeg  7.83271 15.9436 -2.54335
LeftFoot  -2.95833 -0.161196 2.35736
LeftToes  8.00323e-011 -1.37366e-010 4.43692e-012
42
root  24.848 38.6534 -8.67035 -172.861 -75.9521 172.445
RightUpLeg  8.48019 -7.58468 -9.43663
RightLeg  32.9661 5.76855 3.73429
RightFoot  -6.30438 -0.612013 13.3455
RightToes  -1.74624e-010 0 -3.6325e-017
Spine  14.5476 2.97682 6.8538
Spine1  9.04959 5.75588 -6.66861
HEad  -20.74 3.66547 -1.23492
LeftShoulder1  6.99287 -10.8921 -42.1753
LeftArm  -9.92544 21.3026 -18.1501
LeftForeArm  27.1578 -12.1187 -4.37733
LeftHand  -0.244104 0.0205437 5.32207
RightShoulder  4.37943 7.84106 32.6612
RightArm  -28.5295 9.78436 26.1279
RightForeArm  36.0906 75.7333 47.8283
RightHand  -0.581965 0.784374 -11.0866
LeftUpLeg  -23.9586 10.1324 -8.35967
LeftLeg  14.1557 6.08424 0.314229
LeftFoot  0.086011 -0.450706 4.53089
LeftToes  8.00323e-011 -1.37366e-010 4.43692e-012
43
root  22.8549 38.5231 -8.7699 -169.033 -75.1473 167.383
RightUpLeg  3.0823 -3.8179 -10.8007
RightLeg  45.7068 3.32429 3.33972
RightFoot  6.76071 -1.75862 11.5119
RightToes  -1.74624e-010 0 -3.6325e-017
Spine  15.6555 3.1453 5.14779
Spine1  8.47879 5.71961 -6.52318
HEad  -21.235 4.04823 -1.22359
LeftShoulder1  7.16537 -11.2254 -42.2443
LeftArm  -10.4855 21.0388 -17.6681
LeftForeArm  26.4834 -10.0451 -4.41434
LeftHand  -0.244104 0.0205437 5.32207
RightShoulder  4.40641 7.9626 32.4872
RightArm  -30.216 8.9814 24.6515
RightForeArm  65.3588 79.1017 78.4884
RightHand  -0.493056 0.122028 -10.4607
LeftUpLeg  -22.8501 12.7768 -11.1045
LeftLeg  19.2442 3.03937 1.74064
LeftFoot  -0.462371 -0.555243 5.88814
LeftToes  8.00323e-011 -1.37366e-010 4.43692e-012
44
root  21.0138 38.3691 -8.86008 -162.878 -74.1773 160.232
RightUpLeg  -4.18234 -0.5443 -12.5212
RightLeg  57.4094 1.73504 2.48056
RightFoot  15.8805 -1.80399 7.81783
RightToes  -1.74624e-010 0 -3.6325e-017
Spine  16.8343 3.07373 2.59973
Spine1  8.11801 5.37751 -6.92353
HEad  -21.3777 4.95489 -1.65431
LeftShoulder1  7.27163 -11.3625 -42.4927
LeftArm  -10.7511 19.8384 -17.4864
LeftForeArm  25.8513 -9.80756 -4.41489
LeftHand  -0.244104 0.0205437 5.32207
RightShoulder  4.38583 7.96054 32.3143
RightArm  -31.6756 8.79472 23.7952
RightForeArm  97.1472 78.5694 110.805
RightHand  -0.411619 -0.418662 -9.56749
LeftUpLeg  -21.3389 12.7867 -12.998
LeftLeg  23.8559 4.76428 2.64218
LeftFoot  -5.12652 -0.306164 6.13161
LeftToes  8.00323e-011 -1.37366e-010 4.43692e-012
45
root  19.132 38.3224 -8.90271 -159.421 -73.9983 156.228
RightUpLeg  -11.5624 0.72832 -13.4467
RightLeg  65.3881 0.476509 0.503315
RightFoot  15.2247 -1.04627 4.80801
RightToes  -1.74624e-010 0 -3.6325e-017
Spine  17.6923 2.30815 1.70654
Spine1  7.28728 4.49805 -7.40741
HEad  -21.5551 6.17204 -2.25681
LeftShoulder1  7.34647 -11.3295 -43.0588
LeftArm  -10.7427 17.7531 -17.3605
LeftForeArm  26.0009 -11.8249 -4.38684
LeftHand  -0.244104 0.0205437 5.32207
RightShoulder  4.3296 7.82507 32.2754
RightArm  -33.2496 8.61056 23.1716
RightForeArm  119.287 75.642 132.441
RightHand  -0.246042 -1.44249 -7.04782
LeftUpLeg  -18.6963 12.4135 -14.2691
LeftLeg  26.2756 5.6167 3.35421
LeftFoot  -10.2969 0.0109554 5.58889
LeftToes  8.00323e-011 -1.37366e-010 4.43692e-012
